<svg width="47" height="48" viewBox="0 0 47 48" fill="none" xmlns="http://www.w3.org/2000/svg">
<path d="M39.0834 41.5242C39.1996 31.7617 35.6549 22.1734 29.2627 14.7934C23.9165 8.57556 13.3404 0.556305 4.50763 3.11317C4.50763 3.40372 4.39141 3.63617 4.10086 3.8105C3.11298 4.50782 2.41565 4.56593 1.25344 4.27538C0.556116 4.10105 0.439895 3.11317 1.07911 2.70639C10.6673 -2.69788 22.8706 5.43759 29.3789 12.3527C36.759 20.1977 40.9429 30.7157 40.7686 41.5242C40.7686 42.6283 39.0834 42.6283 39.0834 41.5242Z" fill="#828282"/>
<path d="M41.4073 46.8125C41.233 47.4517 40.187 47.7422 39.8383 46.9868C37.9788 42.5704 35.3057 38.677 31.8191 35.3066C31.0055 34.5511 32.2258 33.3308 33.0394 34.0863C36.1193 37.0499 38.5599 40.4203 40.4775 44.2556C41.6979 41.0014 43.3831 37.9797 45.5332 35.1904C46.1724 34.3187 47.3927 35.539 46.7535 36.4107C44.3128 39.6068 42.5695 43.0353 41.4073 46.8125Z" fill="#828282"/>
</svg>
