<svg width="80" height="81" viewBox="0 0 80 81" fill="none" xmlns="http://www.w3.org/2000/svg">
<path d="M13.8774 10.174C13.6774 26.974 19.7774 43.474 30.7774 56.174C39.9774 66.874 58.1774 80.674 73.3774 76.274C73.3774 75.774 73.5774 75.374 74.0774 75.074C75.7774 73.874 76.9774 73.774 78.9774 74.274C80.1774 74.574 80.3774 76.274 79.2774 76.974C62.7774 86.274 41.7774 72.274 30.5774 60.374C17.8774 46.874 10.6774 28.774 10.9774 10.174C10.9774 8.27402 13.8774 8.27402 13.8774 10.174Z" fill="#666666"/>
<path d="M9.87815 1.07435C10.1781 -0.0256543 11.9781 -0.525654 12.5781 0.774346C15.7781 8.37435 20.3781 15.0743 26.3781 20.8743C27.7781 22.1743 25.6781 24.2743 24.2781 22.9743C18.9781 17.8743 14.7782 12.0743 11.4782 5.47435C9.37815 11.0743 6.47815 16.2743 2.77815 21.0743C1.67815 22.5743 -0.421852 20.4743 0.678148 18.9743C4.87815 13.4743 7.87815 7.57435 9.87815 1.07435Z" fill="#666666"/>
</svg>
