<svg width="80" height="81" viewBox="0 0 80 81" fill="none" xmlns="http://www.w3.org/2000/svg">
<path d="M66.1226 69.8287C66.3226 53.0287 60.2226 36.5287 49.2226 23.8287C40.0226 13.1287 21.8226 -0.671341 6.62264 3.72866C6.62264 4.22866 6.42264 4.62866 5.92264 4.92867C4.22264 6.12866 3.02264 6.22866 1.02264 5.72866C-0.177357 5.42866 -0.377358 3.72866 0.722642 3.02866C17.2226 -6.27134 38.2226 7.72866 49.4226 19.6287C62.1226 33.1287 69.3226 51.2287 69.0226 69.8287C69.0226 71.7287 66.1226 71.7287 66.1226 69.8287Z" fill="#828282"/>
<path d="M70.1219 78.9286C69.8219 80.0286 68.0219 80.5286 67.4219 79.2286C64.2219 71.6286 59.6219 64.9286 53.6219 59.1286C52.2219 57.8286 54.3219 55.7286 55.7219 57.0286C61.0219 62.1286 65.2218 67.9286 68.5218 74.5286C70.6218 68.9286 73.5219 63.7286 77.2219 58.9286C78.3219 57.4286 80.4219 59.5286 79.3219 61.0286C75.1219 66.5286 72.1219 72.4286 70.1219 78.9286Z" fill="#828282"/>
</svg>
