<svg width="24" height="18" viewBox="0 0 24 18" fill="none" xmlns="http://www.w3.org/2000/svg">
<path d="M2.72223 15.2096C2.79596 15.2096 2.86969 15.1838 2.92956 15.1321L8.02966 10.6779C8.16074 10.5632 8.17397 10.3641 8.05928 10.2324C7.94458 10.1007 7.74544 10.0893 7.615 10.2028L2.5149 14.6569C2.38382 14.7716 2.37059 14.9707 2.48528 15.1025C2.54767 15.1737 2.63527 15.2096 2.72223 15.2096Z" fill="black"/>
<path d="M16.3895 10.1999C16.2591 10.0865 16.0599 10.0991 15.9452 10.2295C15.8305 10.3612 15.8438 10.5604 15.9749 10.6751L21.075 15.1292C21.1348 15.1809 21.2086 15.2067 21.2823 15.2067C21.3699 15.2067 21.4569 15.1708 21.5192 15.0996C21.6339 14.9679 21.6207 14.7687 21.4896 14.654L16.3895 10.1999Z" fill="black"/>
<path d="M23.3698 0H0.630186C0.282323 0 0 0.281693 0 0.630186V16.8991C0 17.2476 0.282323 17.5293 0.630186 17.5293H23.3698C23.7177 17.5293 24 17.2476 24 16.8991V0.630186C24 0.281693 23.7177 0 23.3698 0ZM22.7396 16.2689H1.26037V1.26037H22.7396V16.2689Z" fill="black"/>
<path d="M11.7947 10.9112C11.8539 10.9629 11.9283 10.9887 12.002 10.9887C12.0764 10.9887 12.1501 10.9629 12.21 10.9112L21.4895 2.77299C21.6206 2.65704 21.6338 2.45916 21.5191 2.32745C21.4031 2.197 21.2053 2.1844 21.0742 2.29909L12.002 10.2552L2.92988 2.29909C2.79943 2.1844 2.60029 2.197 2.4856 2.32745C2.37027 2.45916 2.38414 2.65704 2.51458 2.77299L11.7947 10.9112Z" fill="black"/>
</svg>
