<svg width="24" height="24" viewBox="0 0 24 24" fill="none" xmlns="http://www.w3.org/2000/svg">
<path d="M3.24002 0C2.36003 0 1.56001 0.321109 0.960005 0.92316C0.320017 1.56533 0 2.36804 0 3.21091C0 4.0939 0.360002 4.89665 0.960005 5.4987C1.56001 6.10075 2.40001 6.46198 3.20003 6.42186C3.20003 6.42186 3.24002 6.42186 3.28005 6.42186C4.08007 6.42186 4.84006 6.10075 5.44006 5.4987C6.04006 4.89665 6.40007 4.0939 6.40007 3.21091C6.44005 2.36804 6.08005 1.56529 5.48004 0.963234C4.88004 0.321062 4.08002 0 3.24002 0ZM4.88004 4.93682C4.44002 5.37834 3.84002 5.65928 3.20003 5.61916C2.60003 5.61916 1.96004 5.37834 1.52002 4.93682C1.04002 4.4953 0.80002 3.85313 0.80002 3.21095C0.80002 2.56878 1.04002 1.96673 1.52002 1.48509C1.96004 1.04357 2.56005 0.80275 3.24002 0.80275C3.84002 0.80275 4.44002 1.04357 4.88004 1.48509C5.36004 1.96673 5.60005 2.56878 5.60005 3.21095C5.60005 3.85313 5.36004 4.4953 4.88004 4.93682Z" fill="black"/>
<path d="M4.80043 7.22461H1.56041C0.920425 7.22461 0.400391 7.74637 0.400391 8.42871V22.4766C0.400391 23.1188 0.960409 23.6807 1.6004 23.6807H4.80043C5.44042 23.6807 6.00044 23.1188 6.00044 22.5167V8.42871C6.00044 7.78649 5.44042 7.22461 4.80043 7.22461ZM5.20042 22.5167C5.20042 22.7174 5.0004 22.8779 4.80043 22.8779H1.6004C1.40038 22.8779 1.20041 22.6772 1.20041 22.4766V8.42871C1.20041 8.22801 1.3604 8.02736 1.56041 8.02736H4.80043C5.00045 8.02736 5.20042 8.22806 5.20042 8.42871V22.5167Z" fill="black"/>
<path d="M18.4 6.82324H17.56C16 6.82324 14.52 7.50558 13.56 8.58927V8.02734C13.56 7.62599 13.16 7.22459 12.76 7.22459H8.75998C8.39998 7.22459 7.95996 7.5457 7.95996 7.98718V22.9582C7.95996 23.3997 8.39998 23.6806 8.75998 23.6806H13.16C13.52 23.6806 13.96 23.3997 13.96 22.9582V14.2886C13.96 12.9641 14.92 11.9205 16.16 11.9205C16.8 11.9205 17.4 12.1614 17.84 12.6029C18.24 12.9641 18.4001 13.526 18.4001 14.2485V22.8779C18.4001 23.2793 18.8001 23.6807 19.2001 23.6807H23.2001C23.6001 23.6807 24.0001 23.2793 24.0001 22.8779V12.5226C24.0001 9.31174 21.5601 6.82324 18.4 6.82324ZM23.2 22.8378L23.1601 22.8779H19.24L19.2 14.2486C19.2 13.2853 18.96 12.5628 18.44 12.041C17.84 11.439 17.04 11.1179 16.2 11.1179C14.52 11.158 13.2 12.5227 13.2 14.2887V22.8779H8.79997V8.02734H12.76L12.8 8.06747V10.5961L13.88 9.51239L13.92 9.47227C14.72 8.34845 16.12 7.62599 17.6 7.62599H18.44C21.12 7.62599 23.2 9.79338 23.2 12.5227V22.8378V22.8378Z" fill="black"/>
</svg>
