<svg width="24" height="24" viewBox="0 0 24 24" fill="none" xmlns="http://www.w3.org/2000/svg">
<path d="M23.3991 16.2907C23.362 16.2866 19.6886 15.8794 18.2444 15.5584C18.1021 15.5267 17.9551 15.5112 17.8081 15.5112C16.4724 15.5112 15.2864 16.8206 14.7483 17.5205C12.3723 16.7701 10.191 14.6765 9.75749 14.2436C9.32395 13.8094 7.23038 11.6289 6.47993 9.25279C7.25667 8.65607 8.7778 7.26845 8.44202 5.75542C8.1204 4.31184 7.71382 0.638488 7.70977 0.60073C7.67134 0.252813 7.36456 -0.0148667 7.02338 0.000641161C6.87033 0.0046867 3.25361 0.103802 0.414992 1.39433C0.191139 1.49749 0.0401059 1.71325 0.0225752 1.95936C-0.00506933 2.33155 -0.570771 11.1454 6.14213 17.8583C11.8376 23.5538 19.2025 23.9968 21.3244 23.9968C21.7849 23.9968 22.0411 23.9772 22.0411 23.9772C22.2865 23.959 22.5036 23.808 22.6055 23.5841C23.896 20.7462 23.9964 17.1295 23.9998 16.9764C24.0079 16.6271 23.747 16.3291 23.3991 16.2907ZM21.5401 22.6469C21.4747 22.6482 21.4033 22.6489 21.3244 22.6489C19.334 22.6489 12.4255 22.2349 7.09553 16.9049C1.61112 11.4199 1.33468 4.22216 1.35491 2.45966C3.21248 1.71056 5.39842 1.4631 6.4415 1.38489C6.57568 2.52506 6.86965 4.89709 7.12587 6.04872C7.29983 6.83154 5.99379 7.98182 5.33437 8.41671C5.09636 8.57247 4.98308 8.86172 5.04848 9.13817C5.72948 11.9552 8.09545 14.4884 8.80409 15.197C9.51409 15.9064 12.0466 18.2716 14.8623 18.9513C15.1381 19.0207 15.4287 18.9041 15.5844 18.6654C15.9944 18.039 17.173 16.6979 17.9524 16.8753C19.1034 17.1308 21.4761 17.4241 22.6169 17.5583C22.5387 18.6014 22.2926 20.7853 21.5401 22.6469Z" fill="black"/>
<path d="M12.75 4.40598C12.75 4.59207 12.9004 4.7431 13.0871 4.7431C14.7364 4.7431 16.2858 5.385 17.4509 6.54944C18.616 7.71388 19.2566 9.26332 19.2566 10.9132C19.2566 11.0986 19.4076 11.2504 19.5937 11.2504C19.7798 11.2504 19.9308 11.0993 19.9308 10.9132C19.9315 9.08329 19.2195 7.36461 17.9276 6.07274C16.6364 4.78086 14.9164 4.06952 13.0871 4.06885C12.901 4.06885 12.75 4.21988 12.75 4.40598Z" fill="black"/>
<path d="M12.9934 0.817323C15.718 0.817323 18.2789 1.87658 20.2025 3.80091C22.1262 5.72524 23.1854 8.28404 23.1848 11.0087C23.1848 11.1948 23.3358 11.3458 23.5219 11.3458C23.708 11.3458 23.859 11.1948 23.859 11.0087C23.8597 8.10402 22.7303 5.3753 20.6792 3.32421C18.6281 1.27312 15.8981 0.143066 12.9934 0.143066C12.8073 0.143066 12.6562 0.2941 12.6562 0.480195C12.6562 0.665615 12.8059 0.817323 12.9934 0.817323Z" fill="black"/>
</svg>
